<?xml version="1.0" standalone="no"?>
<!DOCTYPE svg PUBLIC "-//W3C//DTD SVG 20010904//EN"
 "http://www.w3.org/TR/2001/REC-SVG-20010904/DTD/svg10.dtd">
<svg version="1.0" xmlns="http://www.w3.org/2000/svg"
 width="700.000000pt" height="700.000000pt" viewBox="0 0 700.000000 700.000000"
 preserveAspectRatio="xMidYMid meet">
<metadata>
Created by potrace 1.14, written by Peter Selinger 2001-2017
</metadata>
<g transform="translate(0.000000,700.000000) scale(0.100000,-0.100000)"
fill="#000000" stroke="none">
<path d="M700 6984 c-111 -23 -213 -66 -305 -128 -33 -22 -65 -45 -72 -50
-158 -143 -244 -278 -300 -471 -17 -57 -18 -220 -20 -2815 -2 -2285 0 -2765
11 -2812 83 -347 306 -583 643 -680 l78 -23 2765 0 2765 0 79 23 c238 69 413
203 543 417 40 65 89 203 101 285 9 58 9 5468 0 5536 -9 76 -59 212 -109 301
-51 90 -180 226 -274 289 -72 48 -165 90 -260 118 l-70 21 -2755 2 c-2326 1
-2765 -1 -2820 -13z"/>
</g>
</svg>
